<svg xmlns="http://www.w3.org/2000/svg" width="64" height="64" viewBox="0 0 64 64"><g color="#000"><path d="M1 0C.448 0 0 .448 0 1s.448 1 1 1 1-.448 1-1-.448-1-1-1zM5 0c-.552 0-1 .448-1 1s.448 1 1 1 1-.448 1-1-.448-1-1-1zM9 0c-.552 0-1 .448-1 1s.448 1 1 1 1-.448 1-1-.448-1-1-1zM13 0c-.552 0-1 .448-1 1s.448 1 1 1 1-.448 1-1-.448-1-1-1zM17 0c-.552 0-1 .448-1 1s.448 1 1 1 1-.448 1-1-.448-1-1-1zM21 0c-.552 0-1 .448-1 1s.448 1 1 1 1-.448 1-1-.448-1-1-1zM25 0c-.552 0-1 .448-1 1s.448 1 1 1 1-.448 1-1-.448-1-1-1zM29 0c-.552 0-1 .448-1 1s.448 1 1 1 1-.448 1-1-.448-1-1-1zM33 0c-.552 0-1 .448-1 1s.448 1 1 1 1-.448 1-1-.448-1-1-1zM37 0c-.552 0-1 .448-1 1s.448 1 1 1 1-.448 1-1-.448-1-1-1zM41 0c-.552 0-1 .448-1 1s.448 1 1 1 1-.448 1-1-.448-1-1-1zM45 0c-.552 0-1 .448-1 1s.448 1 1 1 1-.448 1-1-.448-1-1-1zM49 0c-.552 0-1 .448-1 1s.448 1 1 1 1-.448 1-1-.448-1-1-1zM53 0c-.552 0-1 .448-1 1s.448 1 1 1 1-.448 1-1-.448-1-1-1zM57 0c-.552 0-1 .448-1 1s.448 1 1 1 1-.448 1-1-.448-1-1-1zM61 0c-.552 0-1 .448-1 1s.448 1 1 1 1-.448 1-1-.448-1-1-1zM3 2c-.552 0-1 .448-1 1s.448 1 1 1 1-.448 1-1-.448-1-1-1zM7 2c-.552 0-1 .448-1 1s.448 1 1 1 1-.448 1-1-.448-1-1-1zM11 2c-.552 0-1 .448-1 1s.448 1 1 1 1-.448 1-1-.448-1-1-1zM15 2c-.552 0-1 .448-1 1s.448 1 1 1 1-.448 1-1-.448-1-1-1zM19 2c-.552 0-1 .448-1 1s.448 1 1 1 1-.448 1-1-.448-1-1-1zM23 2c-.552 0-1 .448-1 1s.448 1 1 1 1-.448 1-1-.448-1-1-1zM27.5 2c-.552 0-1 .448-1 1s.448 1 1 1 1-.448 1-1-.448-1-1-1zM31 2c-.552 0-1 .448-1 1s.448 1 1 1 1-.448 1-1-.448-1-1-1zM35 2c-.552 0-1 .448-1 1s.448 1 1 1 1-.448 1-1-.448-1-1-1zM39 2c-.552 0-1 .448-1 1s.448 1 1 1 1-.448 1-1-.448-1-1-1zM43 2c-.552 0-1 .448-1 1s.448 1 1 1 1-.448 1-1-.448-1-1-1zM47 2c-.552 0-1 .448-1 1s.448 1 1 1 1-.448 1-1-.448-1-1-1zM51 2c-.552 0-1 .448-1 1s.448 1 1 1 1-.448 1-1-.448-1-1-1zM55 2c-.552 0-1 .448-1 1s.448 1 1 1 1-.448 1-1-.448-1-1-1zM59.5 2c-.552 0-1 .448-1 1s.448 1 1 1 1-.448 1-1-.448-1-1-1z" style="isolation:auto;mix-blend-mode:normal" overflow="visible" solid-color="#000000" fill="#c1c1c1"/><path d="M63 2c-.552 0-1 .448-1 1s.448 1 1 1 1-.448 1-1-.448-1-1-1z" style="isolation:auto;mix-blend-mode:normal" overflow="visible" opacity=".75" solid-color="#000000" fill="#c1c1c1"/><path d="M1 4c-.552 0-1 .448-1 1s.448 1 1 1 1-.448 1-1-.448-1-1-1zM5 4c-.552 0-1 .448-1 1s.448 1 1 1 1-.448 1-1-.448-1-1-1zM9 4c-.552 0-1 .448-1 1s.448 1 1 1 1-.448 1-1-.448-1-1-1zM13 4c-.552 0-1 .448-1 1s.448 1 1 1 1-.448 1-1-.448-1-1-1zM17 4c-.552 0-1 .448-1 1s.448 1 1 1 1-.448 1-1-.448-1-1-1zM21 4c-.552 0-1 .448-1 1s.448 1 1 1 1-.448 1-1-.448-1-1-1zM25 4c-.552 0-1 .448-1 1s.448 1 1 1 1-.448 1-1-.448-1-1-1zM29 4c-.552 0-1 .448-1 1s.448 1 1 1 1-.448 1-1-.448-1-1-1zM33 4c-.552 0-1 .448-1 1s.448 1 1 1 1-.448 1-1-.448-1-1-1zM37 4c-.552 0-1 .448-1 1s.448 1 1 1 1-.448 1-1-.448-1-1-1zM41 4c-.552 0-1 .448-1 1s.448 1 1 1 1-.448 1-1-.448-1-1-1zM45 4c-.552 0-1 .448-1 1s.448 1 1 1 1-.448 1-1-.448-1-1-1zM49 4c-.552 0-1 .448-1 1s.448 1 1 1 1-.448 1-1-.448-1-1-1zM53 4c-.552 0-1 .448-1 1s.448 1 1 1 1-.448 1-1-.448-1-1-1zM57 4c-.552 0-1 .448-1 1s.448 1 1 1 1-.448 1-1-.448-1-1-1zM61 4c-.552 0-1 .448-1 1s.448 1 1 1 1-.448 1-1-.448-1-1-1zM3 6c-.552 0-1 .448-1 1s.448 1 1 1 1-.448 1-1-.448-1-1-1zM7 6c-.552 0-1 .448-1 1s.448 1 1 1 1-.448 1-1-.448-1-1-1zM11 6c-.552 0-1 .448-1 1s.448 1 1 1 1-.448 1-1-.448-1-1-1zM15 6c-.552 0-1 .448-1 1s.448 1 1 1 1-.448 1-1-.448-1-1-1zM19 6c-.552 0-1 .448-1 1s.448 1 1 1 1-.448 1-1-.448-1-1-1zM23 6c-.552 0-1 .448-1 1s.448 1 1 1 1-.448 1-1-.448-1-1-1zM27 6c-.552 0-1 .448-1 1s.448 1 1 1 1-.448 1-1-.448-1-1-1zM31 6c-.552 0-1 .448-1 1s.448 1 1 1 1-.448 1-1-.448-1-1-1zM35 6c-.552 0-1 .448-1 1s.448 1 1 1 1-.448 1-1-.448-1-1-1zM39 6c-.552 0-1 .448-1 1s.448 1 1 1 1-.448 1-1-.448-1-1-1zM43 6c-.552 0-1 .448-1 1s.448 1 1 1 1-.448 1-1-.448-1-1-1zM47 6c-.552 0-1 .448-1 1s.448 1 1 1 1-.448 1-1-.448-1-1-1zM51 6c-.552 0-1 .448-1 1s.448 1 1 1 1-.448 1-1-.448-1-1-1zM55 6c-.552 0-1 .448-1 1s.448 1 1 1 1-.448 1-1-.448-1-1-1zM59 6c-.552 0-1 .448-1 1s.448 1 1 1 1-.448 1-1-.448-1-1-1zM63 6c-.552 0-1 .448-1 1s.448 1 1 1 1-.448 1-1-.448-1-1-1zM1 8c-.552 0-1 .448-1 1s.448 1 1 1 1-.448 1-1-.448-1-1-1zM5.5 8c-.552 0-1 .448-1 1s.448 1 1 1 1-.448 1-1-.448-1-1-1z" style="isolation:auto;mix-blend-mode:normal" overflow="visible" solid-color="#000000" fill="#c1c1c1"/><path d="M9 8c-.552 0-1 .448-1 1s.448 1 1 1 1-.448 1-1-.448-1-1-1z" style="isolation:auto;mix-blend-mode:normal" overflow="visible" solid-color="#000000" fill="#a4a4a4"/><path d="M13 8c-.552 0-1 .448-1 1s.448 1 1 1 1-.448 1-1-.448-1-1-1zM17 8c-.552 0-1 .448-1 1s.448 1 1 1 1-.448 1-1-.448-1-1-1zM21 8c-.552 0-1 .448-1 1s.448 1 1 1 1-.448 1-1-.448-1-1-1zM25 8c-.552 0-1 .448-1 1s.448 1 1 1 1-.448 1-1-.448-1-1-1zM29 8c-.552 0-1 .448-1 1s.448 1 1 1 1-.448 1-1-.448-1-1-1zM33 8c-.552 0-1 .448-1 1s.448 1 1 1 1-.448 1-1-.448-1-1-1zM37.5 8c-.552 0-1 .448-1 1s.448 1 1 1 1-.448 1-1-.448-1-1-1zM41 8c-.552 0-1 .448-1 1s.448 1 1 1 1-.448 1-1-.448-1-1-1zM45 8c-.552 0-1 .448-1 1s.448 1 1 1 1-.448 1-1-.448-1-1-1zM49 8c-.552 0-1 .448-1 1s.448 1 1 1 1-.448 1-1-.448-1-1-1zM53 8c-.552 0-1 .448-1 1s.448 1 1 1 1-.448 1-1-.448-1-1-1zM57 8c-.552 0-1 .448-1 1s.448 1 1 1 1-.448 1-1-.448-1-1-1z" style="isolation:auto;mix-blend-mode:normal" overflow="visible" solid-color="#000000" fill="#c1c1c1"/><path d="M61 8c-.552 0-1 .448-1 1s.448 1 1 1 1-.448 1-1-.448-1-1-1z" style="isolation:auto;mix-blend-mode:normal" overflow="visible" opacity=".75" solid-color="#000000" fill="#c1c1c1"/><path d="M3 10c-.552 0-1 .448-1 1s.448 1 1 1 1-.448 1-1-.448-1-1-1zM7 10c-.552 0-1 .448-1 1s.448 1 1 1 1-.448 1-1-.448-1-1-1zM11 10c-.552 0-1 .448-1 1s.448 1 1 1 1-.448 1-1-.448-1-1-1zM15 10c-.552 0-1 .448-1 1s.448 1 1 1 1-.448 1-1-.448-1-1-1zM19 10c-.552 0-1 .448-1 1s.448 1 1 1 1-.448 1-1-.448-1-1-1zM23 10c-.552 0-1 .448-1 1s.448 1 1 1 1-.448 1-1-.448-1-1-1zM27 10c-.552 0-1 .448-1 1s.448 1 1 1 1-.448 1-1-.448-1-1-1zM31 10c-.552 0-1 .448-1 1s.448 1 1 1 1-.448 1-1-.448-1-1-1z" style="isolation:auto;mix-blend-mode:normal" overflow="visible" solid-color="#000000" fill="#c1c1c1"/><path d="M35 10c-.552 0-1 .448-1 1s.448 1 1 1 1-.448 1-1-.448-1-1-1z" style="isolation:auto;mix-blend-mode:normal" overflow="visible" opacity=".75" solid-color="#000000" fill="#c1c1c1"/><path d="M39 10c-.552 0-1 .448-1 1s.448 1 1 1 1-.448 1-1-.448-1-1-1zM43 10c-.552 0-1 .448-1 1s.448 1 1 1 1-.448 1-1-.448-1-1-1z" style="isolation:auto;mix-blend-mode:normal" overflow="visible" solid-color="#000000" fill="#c1c1c1"/><path d="M47 10c-.552 0-1 .448-1 1s.448 1 1 1 1-.448 1-1-.448-1-1-1z" style="isolation:auto;mix-blend-mode:normal" overflow="visible" solid-color="#000000" fill="#b4b4b4"/><path d="M51 10c-.552 0-1 .448-1 1s.448 1 1 1 1-.448 1-1-.448-1-1-1z" style="isolation:auto;mix-blend-mode:normal" overflow="visible" opacity=".5" solid-color="#000000" fill="#c1c1c1"/><path d="M55 10c-.552 0-1 .448-1 1s.448 1 1 1 1-.448 1-1-.448-1-1-1zM59 10c-.552 0-1 .448-1 1s.448 1 1 1 1-.448 1-1-.448-1-1-1zM63 10c-.552 0-1 .448-1 1s.448 1 1 1 1-.448 1-1-.448-1-1-1zM1 12c-.552 0-1 .448-1 1s.448 1 1 1 1-.448 1-1-.448-1-1-1zM5 12c-.552 0-1 .448-1 1s.448 1 1 1 1-.448 1-1-.448-1-1-1zM9 12c-.552 0-1 .448-1 1s.448 1 1 1 1-.448 1-1-.448-1-1-1zM13 12c-.552 0-1 .448-1 1s.448 1 1 1 1-.448 1-1-.448-1-1-1zM17 12c-.552 0-1 .448-1 1s.448 1 1 1 1-.448 1-1-.448-1-1-1zM21 12c-.552 0-1 .448-1 1s.448 1 1 1 1-.448 1-1-.448-1-1-1zM25 12c-.552 0-1 .448-1 1s.448 1 1 1 1-.448 1-1-.448-1-1-1zM29 12c-.552 0-1 .448-1 1s.448 1 1 1 1-.448 1-1-.448-1-1-1zM33 12c-.552 0-1 .448-1 1s.448 1 1 1 1-.448 1-1-.448-1-1-1zM37 12c-.552 0-1 .448-1 1s.448 1 1 1 1-.448 1-1-.448-1-1-1zM41 12c-.552 0-1 .448-1 1s.448 1 1 1 1-.448 1-1-.448-1-1-1zM45 12c-.552 0-1 .448-1 1s.448 1 1 1 1-.448 1-1-.448-1-1-1zM49 12c-.552 0-1 .448-1 1s.448 1 1 1 1-.448 1-1-.448-1-1-1zM53 12c-.552 0-1 .448-1 1s.448 1 1 1 1-.448 1-1-.448-1-1-1zM57 12c-.552 0-1 .448-1 1s.448 1 1 1 1-.448 1-1-.448-1-1-1zM61 12c-.552 0-1 .448-1 1s.448 1 1 1 1-.448 1-1-.448-1-1-1zM3 14c-.552 0-1 .448-1 1s.448 1 1 1 1-.448 1-1-.448-1-1-1zM7 14c-.552 0-1 .448-1 1s.448 1 1 1 1-.448 1-1-.448-1-1-1zM11 14c-.552 0-1 .448-1 1s.448 1 1 1 1-.448 1-1-.448-1-1-1zM15 14c-.552 0-1 .448-1 1s.448 1 1 1 1-.448 1-1-.448-1-1-1zM19 14c-.552 0-1 .448-1 1s.448 1 1 1 1-.448 1-1-.448-1-1-1z" style="isolation:auto;mix-blend-mode:normal" overflow="visible" solid-color="#000000" fill="#c1c1c1"/><path d="M23 14c-.552 0-1 .448-1 1s.448 1 1 1 1-.448 1-1-.448-1-1-1z" style="isolation:auto;mix-blend-mode:normal" overflow="visible" solid-color="#000000" fill="#c3c3c3"/><path d="M27 14c-.552 0-1 .448-1 1s.448 1 1 1 1-.448 1-1-.448-1-1-1zM31 14c-.552 0-1 .448-1 1s.448 1 1 1 1-.448 1-1-.448-1-1-1zM35 14c-.552 0-1 .448-1 1s.448 1 1 1 1-.448 1-1-.448-1-1-1zM39 14c-.552 0-1 .448-1 1s.448 1 1 1 1-.448 1-1-.448-1-1-1z" style="isolation:auto;mix-blend-mode:normal" overflow="visible" solid-color="#000000" fill="#c1c1c1"/><path d="M43 14c-.552 0-1 .448-1 1s.448 1 1 1 1-.448 1-1-.448-1-1-1z" style="isolation:auto;mix-blend-mode:normal" overflow="visible" solid-color="#000000" fill="#acacac"/><path d="M47 14c-.552 0-1 .448-1 1s.448 1 1 1 1-.448 1-1-.448-1-1-1zM51 14c-.552 0-1 .448-1 1s.448 1 1 1 1-.448 1-1-.448-1-1-1zM55 14c-.552 0-1 .448-1 1s.448 1 1 1 1-.448 1-1-.448-1-1-1z" style="isolation:auto;mix-blend-mode:normal" overflow="visible" solid-color="#000000" fill="#c1c1c1"/><path d="M59 14c-.552 0-1 .448-1 1s.448 1 1 1 1-.448 1-1-.448-1-1-1z" style="isolation:auto;mix-blend-mode:normal" overflow="visible" opacity=".75" solid-color="#000000" fill="#c1c1c1"/><path d="M63 14c-.552 0-1 .448-1 1s.448 1 1 1 1-.448 1-1-.448-1-1-1zM17 15.492c-.552 0-1 .448-1 1 0 .553.448 1 1 1s1-.447 1-1c0-.552-.448-1-1-1zM49 15.492c-.552 0-1 .448-1 1 0 .553.448 1 1 1s1-.447 1-1c0-.552-.448-1-1-1zM1 16c-.552 0-1 .448-1 1s.448 1 1 1 1-.448 1-1-.448-1-1-1z" style="isolation:auto;mix-blend-mode:normal" overflow="visible" solid-color="#000000" fill="#c1c1c1"/><path d="M5 16c-.552 0-1 .448-1 1s.448 1 1 1 1-.448 1-1-.448-1-1-1z" style="isolation:auto;mix-blend-mode:normal" overflow="visible" opacity=".5" solid-color="#000000" fill="#c1c1c1"/><path d="M9 16c-.552 0-1 .448-1 1s.448 1 1 1 1-.448 1-1-.448-1-1-1zM13 16c-.552 0-1 .448-1 1s.448 1 1 1 1-.448 1-1-.448-1-1-1z" style="isolation:auto;mix-blend-mode:normal" overflow="visible" solid-color="#000000" fill="#c1c1c1"/><path d="M21 16c-.552 0-1 .448-1 1s.448 1 1 1 1-.448 1-1-.448-1-1-1z" style="isolation:auto;mix-blend-mode:normal" overflow="visible" opacity=".5" solid-color="#000000" fill="#c1c1c1"/><path d="M25 16c-.552 0-1 .448-1 1s.448 1 1 1 1-.448 1-1-.448-1-1-1zM29 16c-.552 0-1 .448-1 1s.448 1 1 1 1-.448 1-1-.448-1-1-1zM33 16c-.552 0-1 .448-1 1s.448 1 1 1 1-.448 1-1-.448-1-1-1z" style="isolation:auto;mix-blend-mode:normal" overflow="visible" solid-color="#000000" fill="#c1c1c1"/><path d="M37 16c-.552 0-1 .448-1 1s.448 1 1 1 1-.448 1-1-.448-1-1-1z" style="isolation:auto;mix-blend-mode:normal" overflow="visible" solid-color="#000000" fill="#c3c3c3"/><path d="M41 16c-.552 0-1 .448-1 1s.448 1 1 1 1-.448 1-1-.448-1-1-1zM45 16c-.552 0-1 .448-1 1s.448 1 1 1 1-.448 1-1-.448-1-1-1zM53 16c-.552 0-1 .448-1 1s.448 1 1 1 1-.448 1-1-.448-1-1-1zM57 16c-.552 0-1 .448-1 1s.448 1 1 1 1-.448 1-1-.448-1-1-1zM61 16c-.552 0-1 .448-1 1s.448 1 1 1 1-.448 1-1-.448-1-1-1zM3 18c-.552 0-1 .448-1 1s.448 1 1 1 1-.448 1-1-.448-1-1-1zM7 18c-.552 0-1 .448-1 1s.448 1 1 1 1-.448 1-1-.448-1-1-1zM11 18c-.552 0-1 .448-1 1s.448 1 1 1 1-.448 1-1-.448-1-1-1zM15 18c-.552 0-1 .448-1 1s.448 1 1 1 1-.448 1-1-.448-1-1-1zM19 18c-.552 0-1 .448-1 1s.448 1 1 1 1-.448 1-1-.448-1-1-1zM23 18c-.552 0-1 .448-1 1s.448 1 1 1 1-.448 1-1-.448-1-1-1zM27 18c-.552 0-1 .448-1 1s.448 1 1 1 1-.448 1-1-.448-1-1-1zM31 18c-.552 0-1 .448-1 1s.448 1 1 1 1-.448 1-1-.448-1-1-1z" style="isolation:auto;mix-blend-mode:normal" overflow="visible" solid-color="#000000" fill="#c1c1c1"/><path d="M35 18c-.552 0-1 .448-1 1s.448 1 1 1 1-.448 1-1-.448-1-1-1z" style="isolation:auto;mix-blend-mode:normal" overflow="visible" opacity=".75" solid-color="#000000" fill="#c1c1c1"/><path d="M39 18c-.552 0-1 .448-1 1s.448 1 1 1 1-.448 1-1-.448-1-1-1z" style="isolation:auto;mix-blend-mode:normal" overflow="visible" opacity=".5" solid-color="#000000" fill="#c1c1c1"/><path d="M43 18c-.552 0-1 .448-1 1s.448 1 1 1 1-.448 1-1-.448-1-1-1zM47 18c-.552 0-1 .448-1 1s.448 1 1 1 1-.448 1-1-.448-1-1-1zM51 18c-.552 0-1 .448-1 1s.448 1 1 1 1-.448 1-1-.448-1-1-1zM55 18c-.552 0-1 .448-1 1s.448 1 1 1 1-.448 1-1-.448-1-1-1z" style="isolation:auto;mix-blend-mode:normal" overflow="visible" solid-color="#000000" fill="#c1c1c1"/><path d="M59 18c-.552 0-1 .448-1 1s.448 1 1 1 1-.448 1-1-.448-1-1-1z" style="isolation:auto;mix-blend-mode:normal" overflow="visible" solid-color="#000000" fill="#c3c3c3"/><path d="M63 18c-.552 0-1 .448-1 1s.448 1 1 1 1-.448 1-1-.448-1-1-1zM1 20c-.552 0-1 .448-1 1s.448 1 1 1 1-.448 1-1-.448-1-1-1zM5 20c-.552 0-1 .448-1 1s.448 1 1 1 1-.448 1-1-.448-1-1-1zM9 20c-.552 0-1 .448-1 1s.448 1 1 1 1-.448 1-1-.448-1-1-1zM13 20c-.552 0-1 .448-1 1s.448 1 1 1 1-.448 1-1-.448-1-1-1zM17 20c-.552 0-1 .448-1 1s.448 1 1 1 1-.448 1-1-.448-1-1-1zM21 20c-.552 0-1 .448-1 1s.448 1 1 1 1-.448 1-1-.448-1-1-1zM25 20c-.552 0-1 .448-1 1s.448 1 1 1 1-.448 1-1-.448-1-1-1zM29 20c-.552 0-1 .448-1 1s.448 1 1 1 1-.448 1-1-.448-1-1-1zM33 20c-.552 0-1 .448-1 1s.448 1 1 1 1-.448 1-1-.448-1-1-1zM37 20c-.552 0-1 .448-1 1s.448 1 1 1 1-.448 1-1-.448-1-1-1zM41 20c-.552 0-1 .448-1 1s.448 1 1 1 1-.448 1-1-.448-1-1-1zM45 20c-.552 0-1 .448-1 1s.448 1 1 1 1-.448 1-1-.448-1-1-1z" style="isolation:auto;mix-blend-mode:normal" overflow="visible" solid-color="#000000" fill="#c1c1c1"/><path d="M49 20c-.552 0-1 .448-1 1s.448 1 1 1 1-.448 1-1-.448-1-1-1z" style="isolation:auto;mix-blend-mode:normal" overflow="visible" solid-color="#000000" fill="#b4b4b4"/><path d="M53 20c-.552 0-1 .448-1 1s.448 1 1 1 1-.448 1-1-.448-1-1-1zM57 20c-.552 0-1 .448-1 1s.448 1 1 1 1-.448 1-1-.448-1-1-1zM61 20c-.552 0-1 .448-1 1s.448 1 1 1 1-.448 1-1-.448-1-1-1zM3 22c-.552 0-1 .448-1 1s.448 1 1 1 1-.448 1-1-.448-1-1-1z" style="isolation:auto;mix-blend-mode:normal" overflow="visible" solid-color="#000000" fill="#c1c1c1"/><path d="M7 22c-.552 0-1 .448-1 1s.448 1 1 1 1-.448 1-1-.448-1-1-1z" style="isolation:auto;mix-blend-mode:normal" overflow="visible" solid-color="#000000" fill="#c3c3c3"/><path d="M11 22c-.552 0-1 .448-1 1s.448 1 1 1 1-.448 1-1-.448-1-1-1zM15 22c-.552 0-1 .448-1 1s.448 1 1 1 1-.448 1-1-.448-1-1-1zM19 22c-.552 0-1 .448-1 1s.448 1 1 1 1-.448 1-1-.448-1-1-1zM23 22c-.552 0-1 .448-1 1s.448 1 1 1 1-.448 1-1-.448-1-1-1zM27 22c-.552 0-1 .448-1 1s.448 1 1 1 1-.448 1-1-.448-1-1-1zM31 22c-.552 0-1 .448-1 1s.448 1 1 1 1-.448 1-1-.448-1-1-1z" style="isolation:auto;mix-blend-mode:normal" overflow="visible" solid-color="#000000" fill="#c1c1c1"/><path d="M35 22c-.552 0-1 .448-1 1s.448 1 1 1 1-.448 1-1-.448-1-1-1z" style="isolation:auto;mix-blend-mode:normal" overflow="visible" solid-color="#000000" fill="#acacac"/><path d="M39 22c-.552 0-1 .448-1 1s.448 1 1 1 1-.448 1-1-.448-1-1-1zM43 22c-.552 0-1 .448-1 1s.448 1 1 1 1-.448 1-1-.448-1-1-1zM47 22c-.552 0-1 .448-1 1s.448 1 1 1 1-.448 1-1-.448-1-1-1zM51 22c-.552 0-1 .448-1 1s.448 1 1 1 1-.448 1-1-.448-1-1-1zM55 22c-.552 0-1 .448-1 1s.448 1 1 1 1-.448 1-1-.448-1-1-1zM59 22c-.552 0-1 .448-1 1s.448 1 1 1 1-.448 1-1-.448-1-1-1zM63 22c-.552 0-1 .448-1 1s.448 1 1 1 1-.448 1-1-.448-1-1-1zM13 23.5c-.552 0-1 .448-1 1s.448 1 1 1 1-.448 1-1-.448-1-1-1zM45 23.5c-.552 0-1 .448-1 1s.448 1 1 1 1-.448 1-1-.448-1-1-1zM1 24c-.552 0-1 .448-1 1s.448 1 1 1 1-.448 1-1-.448-1-1-1zM5 24c-.552 0-1 .448-1 1s.448 1 1 1 1-.448 1-1-.448-1-1-1zM9 24c-.552 0-1 .448-1 1s.448 1 1 1 1-.448 1-1-.448-1-1-1zM17 24c-.552 0-1 .448-1 1s.448 1 1 1 1-.448 1-1-.448-1-1-1z" style="isolation:auto;mix-blend-mode:normal" overflow="visible" solid-color="#000000" fill="#c1c1c1"/><path d="M21 24c-.552 0-1 .448-1 1s.448 1 1 1 1-.448 1-1-.448-1-1-1z" style="isolation:auto;mix-blend-mode:normal" overflow="visible" opacity=".75" solid-color="#000000" fill="#c1c1c1"/><path d="M25 24c-.552 0-1 .448-1 1s.448 1 1 1 1-.448 1-1-.448-1-1-1z" style="isolation:auto;mix-blend-mode:normal" overflow="visible" solid-color="#000000" fill="#c1c1c1"/><path d="M29 24c-.552 0-1 .448-1 1s.448 1 1 1 1-.448 1-1-.448-1-1-1z" style="isolation:auto;mix-blend-mode:normal" overflow="visible" solid-color="#000000" fill="#b4b4b4"/><path d="M33 24c-.552 0-1 .448-1 1s.448 1 1 1 1-.448 1-1-.448-1-1-1zM37 24c-.552 0-1 .448-1 1s.448 1 1 1 1-.448 1-1-.448-1-1-1zM41 24c-.552 0-1 .448-1 1s.448 1 1 1 1-.448 1-1-.448-1-1-1zM49 24c-.552 0-1 .448-1 1s.448 1 1 1 1-.448 1-1-.448-1-1-1zM53 24c-.552 0-1 .448-1 1s.448 1 1 1 1-.448 1-1-.448-1-1-1zM57 24c-.552 0-1 .448-1 1s.448 1 1 1 1-.448 1-1-.448-1-1-1zM61 24c-.552 0-1 .448-1 1s.448 1 1 1 1-.448 1-1-.448-1-1-1zM3 26c-.552 0-1 .448-1 1s.448 1 1 1 1-.448 1-1-.448-1-1-1zM7 26c-.552 0-1 .448-1 1s.448 1 1 1 1-.448 1-1-.448-1-1-1zM11 26c-.552 0-1 .448-1 1s.448 1 1 1 1-.448 1-1-.448-1-1-1zM15 26c-.552 0-1 .448-1 1s.448 1 1 1 1-.448 1-1-.448-1-1-1zM19 26c-.552 0-1 .448-1 1s.448 1 1 1 1-.448 1-1-.448-1-1-1zM23 26c-.552 0-1 .448-1 1s.448 1 1 1 1-.448 1-1-.448-1-1-1zM27 26c-.552 0-1 .448-1 1s.448 1 1 1 1-.448 1-1-.448-1-1-1zM31 26c-.552 0-1 .448-1 1s.448 1 1 1 1-.448 1-1-.448-1-1-1zM35 26c-.552 0-1 .448-1 1s.448 1 1 1 1-.448 1-1-.448-1-1-1zM39 26c-.552 0-1 .448-1 1s.448 1 1 1 1-.448 1-1-.448-1-1-1zM43 26c-.552 0-1 .448-1 1s.448 1 1 1 1-.448 1-1-.448-1-1-1zM47 26c-.552 0-1 .448-1 1s.448 1 1 1 1-.448 1-1-.448-1-1-1z" style="isolation:auto;mix-blend-mode:normal" overflow="visible" solid-color="#000000" fill="#c1c1c1"/><path d="M51 26c-.552 0-1 .448-1 1s.448 1 1 1 1-.448 1-1-.448-1-1-1z" style="isolation:auto;mix-blend-mode:normal" overflow="visible" solid-color="#000000" fill="#b4b4b4"/><path d="M55 26c-.552 0-1 .448-1 1s.448 1 1 1 1-.448 1-1-.448-1-1-1zM59 26c-.552 0-1 .448-1 1s.448 1 1 1 1-.448 1-1-.448-1-1-1zM63 26c-.552 0-1 .448-1 1s.448 1 1 1 1-.448 1-1-.448-1-1-1zM1 28c-.552 0-1 .448-1 1s.448 1 1 1 1-.448 1-1-.448-1-1-1zM5 28c-.552 0-1 .448-1 1s.448 1 1 1 1-.448 1-1-.448-1-1-1zM9 28c-.552 0-1 .448-1 1s.448 1 1 1 1-.448 1-1-.448-1-1-1zM13 28c-.552 0-1 .448-1 1s.448 1 1 1 1-.448 1-1-.448-1-1-1zM17 28c-.552 0-1 .448-1 1s.448 1 1 1 1-.448 1-1-.448-1-1-1zM21 28c-.552 0-1 .448-1 1s.448 1 1 1 1-.448 1-1-.448-1-1-1z" style="isolation:auto;mix-blend-mode:normal" overflow="visible" solid-color="#000000" fill="#c1c1c1"/><path d="M25 28c-.552 0-1 .448-1 1s.448 1 1 1 1-.448 1-1-.448-1-1-1z" style="isolation:auto;mix-blend-mode:normal" overflow="visible" solid-color="#000000" fill="#acacac"/><path d="M29 28c-.552 0-1 .448-1 1s.448 1 1 1 1-.448 1-1-.448-1-1-1zM33 28c-.552 0-1 .448-1 1s.448 1 1 1 1-.448 1-1-.448-1-1-1zM37 28c-.552 0-1 .448-1 1s.448 1 1 1 1-.448 1-1-.448-1-1-1zM41 28c-.552 0-1 .448-1 1s.448 1 1 1 1-.448 1-1-.448-1-1-1zM45 28c-.552 0-1 .448-1 1s.448 1 1 1 1-.448 1-1-.448-1-1-1zM49 28c-.552 0-1 .448-1 1s.448 1 1 1 1-.448 1-1-.448-1-1-1zM53 28c-.552 0-1 .448-1 1s.448 1 1 1 1-.448 1-1-.448-1-1-1zM57 28c-.552 0-1 .448-1 1s.448 1 1 1 1-.448 1-1-.448-1-1-1zM61 28c-.552 0-1 .448-1 1s.448 1 1 1 1-.448 1-1-.448-1-1-1zM3 30c-.552 0-1 .448-1 1s.448 1 1 1 1-.448 1-1-.448-1-1-1zM7 30c-.552 0-1 .448-1 1s.448 1 1 1 1-.448 1-1-.448-1-1-1zM11 30c-.552 0-1 .448-1 1s.448 1 1 1 1-.448 1-1-.448-1-1-1zM15 30c-.552 0-1 .448-1 1s.448 1 1 1 1-.448 1-1-.448-1-1-1zM19 30c-.552 0-1 .448-1 1s.448 1 1 1 1-.448 1-1-.448-1-1-1zM23 30c-.552 0-1 .448-1 1s.448 1 1 1 1-.448 1-1-.448-1-1-1zM27 30c-.552 0-1 .448-1 1s.448 1 1 1 1-.448 1-1-.448-1-1-1zM31 30c-.552 0-1 .448-1 1s.448 1 1 1 1-.448 1-1-.448-1-1-1zM35 30c-.552 0-1 .448-1 1s.448 1 1 1 1-.448 1-1-.448-1-1-1z" style="isolation:auto;mix-blend-mode:normal" overflow="visible" solid-color="#000000" fill="#c1c1c1"/><path d="M39 30c-.552 0-1 .448-1 1s.448 1 1 1 1-.448 1-1-.448-1-1-1z" style="isolation:auto;mix-blend-mode:normal" overflow="visible" solid-color="#000000" fill="#c3c3c3"/><path d="M43 30c-.552 0-1 .448-1 1s.448 1 1 1 1-.448 1-1-.448-1-1-1zM47 30c-.552 0-1 .448-1 1s.448 1 1 1 1-.448 1-1-.448-1-1-1zM51 30c-.552 0-1 .448-1 1s.448 1 1 1 1-.448 1-1-.448-1-1-1zM55 30c-.552 0-1 .448-1 1s.448 1 1 1 1-.448 1-1-.448-1-1-1zM59 30c-.552 0-1 .448-1 1s.448 1 1 1 1-.448 1-1-.448-1-1-1zM63 30c-.552 0-1 .448-1 1s.448 1 1 1 1-.448 1-1-.448-1-1-1zM1 32c-.552 0-1 .448-1 1s.448 1 1 1 1-.448 1-1-.448-1-1-1zM5 32c-.552 0-1 .448-1 1s.448 1 1 1 1-.448 1-1-.448-1-1-1zM9 32c-.552 0-1 .448-1 1s.448 1 1 1 1-.448 1-1-.448-1-1-1z" style="isolation:auto;mix-blend-mode:normal" overflow="visible" solid-color="#000000" fill="#c1c1c1"/><path d="M13 32c-.552 0-1 .448-1 1s.448 1 1 1 1-.448 1-1-.448-1-1-1z" style="isolation:auto;mix-blend-mode:normal" overflow="visible" opacity=".5" solid-color="#000000" fill="#c1c1c1"/><path d="M17 32c-.552 0-1 .448-1 1s.448 1 1 1 1-.448 1-1-.448-1-1-1zM21 32c-.552 0-1 .448-1 1s.448 1 1 1 1-.448 1-1-.448-1-1-1zM25 32c-.552 0-1 .448-1 1s.448 1 1 1 1-.448 1-1-.448-1-1-1zM29 32c-.552 0-1 .448-1 1s.448 1 1 1 1-.448 1-1-.448-1-1-1z" style="isolation:auto;mix-blend-mode:normal" overflow="visible" solid-color="#000000" fill="#c1c1c1"/><path d="M33 32c-.552 0-1 .448-1 1s.448 1 1 1 1-.448 1-1-.448-1-1-1z" style="isolation:auto;mix-blend-mode:normal" overflow="visible" opacity=".75" solid-color="#000000" fill="#c1c1c1"/><path d="M37 32c-.552 0-1 .448-1 1s.448 1 1 1 1-.448 1-1-.448-1-1-1z" style="isolation:auto;mix-blend-mode:normal" overflow="visible" opacity=".5" solid-color="#000000" fill="#c1c1c1"/><path d="M41 32c-.552 0-1 .448-1 1s.448 1 1 1 1-.448 1-1-.448-1-1-1z" style="isolation:auto;mix-blend-mode:normal" overflow="visible" solid-color="#000000" fill="#c1c1c1"/><path d="M45 32c-.552 0-1 .448-1 1s.448 1 1 1 1-.448 1-1-.448-1-1-1z" style="isolation:auto;mix-blend-mode:normal" overflow="visible" opacity=".5" solid-color="#000000" fill="#c1c1c1"/><path d="M49 32c-.552 0-1 .448-1 1s.448 1 1 1 1-.448 1-1-.448-1-1-1zM53 32c-.552 0-1 .448-1 1s.448 1 1 1 1-.448 1-1-.448-1-1-1zM57 32c-.552 0-1 .448-1 1s.448 1 1 1 1-.448 1-1-.448-1-1-1zM61 32c-.552 0-1 .448-1 1s.448 1 1 1 1-.448 1-1-.448-1-1-1zM3 34c-.552 0-1 .448-1 1s.448 1 1 1 1-.448 1-1-.448-1-1-1zM7 34c-.552 0-1 .448-1 1s.448 1 1 1 1-.448 1-1-.448-1-1-1zM11 34c-.552 0-1 .448-1 1s.448 1 1 1 1-.448 1-1-.448-1-1-1zM15 34c-.552 0-1 .448-1 1s.448 1 1 1 1-.448 1-1-.448-1-1-1zM19 34c-.552 0-1 .448-1 1s.448 1 1 1 1-.448 1-1-.448-1-1-1zM23 34c-.552 0-1 .448-1 1s.448 1 1 1 1-.448 1-1-.448-1-1-1zM27.5 34c-.552 0-1 .448-1 1s.448 1 1 1 1-.448 1-1-.448-1-1-1zM31 34c-.552 0-1 .448-1 1s.448 1 1 1 1-.448 1-1-.448-1-1-1z" style="isolation:auto;mix-blend-mode:normal" overflow="visible" solid-color="#000000" fill="#c1c1c1"/><path d="M35 34c-.552 0-1 .448-1 1s.448 1 1 1 1-.448 1-1-.448-1-1-1z" style="isolation:auto;mix-blend-mode:normal" overflow="visible" solid-color="#000000" fill="#c3c3c3"/><path d="M39 34c-.552 0-1 .448-1 1s.448 1 1 1 1-.448 1-1-.448-1-1-1zM43 34c-.552 0-1 .448-1 1s.448 1 1 1 1-.448 1-1-.448-1-1-1zM47 34c-.552 0-1 .448-1 1s.448 1 1 1 1-.448 1-1-.448-1-1-1zM51 34c-.552 0-1 .448-1 1s.448 1 1 1 1-.448 1-1-.448-1-1-1zM55 34c-.552 0-1 .448-1 1s.448 1 1 1 1-.448 1-1-.448-1-1-1zM59.5 34c-.552 0-1 .448-1 1s.448 1 1 1 1-.448 1-1-.448-1-1-1zM63 34c-.552 0-1 .448-1 1s.448 1 1 1 1-.448 1-1-.448-1-1-1zM1 36c-.552 0-1 .448-1 1s.448 1 1 1 1-.448 1-1-.448-1-1-1zM5 36c-.552 0-1 .448-1 1s.448 1 1 1 1-.448 1-1-.448-1-1-1zM9 36c-.552 0-1 .448-1 1s.448 1 1 1 1-.448 1-1-.448-1-1-1zM13 36c-.552 0-1 .448-1 1s.448 1 1 1 1-.448 1-1-.448-1-1-1zM17 36c-.552 0-1 .448-1 1s.448 1 1 1 1-.448 1-1-.448-1-1-1zM21 36c-.552 0-1 .448-1 1s.448 1 1 1 1-.448 1-1-.448-1-1-1zM25 36c-.552 0-1 .448-1 1s.448 1 1 1 1-.448 1-1-.448-1-1-1zM29 36c-.552 0-1 .448-1 1s.448 1 1 1 1-.448 1-1-.448-1-1-1zM33 36c-.552 0-1 .448-1 1s.448 1 1 1 1-.448 1-1-.448-1-1-1zM37 36c-.552 0-1 .448-1 1s.448 1 1 1 1-.448 1-1-.448-1-1-1zM41 36c-.552 0-1 .448-1 1s.448 1 1 1 1-.448 1-1-.448-1-1-1zM45 36c-.552 0-1 .448-1 1s.448 1 1 1 1-.448 1-1-.448-1-1-1zM49 36c-.552 0-1 .448-1 1s.448 1 1 1 1-.448 1-1-.448-1-1-1zM53 36c-.552 0-1 .448-1 1s.448 1 1 1 1-.448 1-1-.448-1-1-1zM57 36c-.552 0-1 .448-1 1s.448 1 1 1 1-.448 1-1-.448-1-1-1zM61 36c-.552 0-1 .448-1 1s.448 1 1 1 1-.448 1-1-.448-1-1-1zM3 38c-.552 0-1 .448-1 1s.448 1 1 1 1-.448 1-1-.448-1-1-1zM7 38c-.552 0-1 .448-1 1s.448 1 1 1 1-.448 1-1-.448-1-1-1zM11 38c-.552 0-1 .448-1 1s.448 1 1 1 1-.448 1-1-.448-1-1-1zM15 38c-.552 0-1 .448-1 1s.448 1 1 1 1-.448 1-1-.448-1-1-1zM19 38c-.552 0-1 .448-1 1s.448 1 1 1 1-.448 1-1-.448-1-1-1zM23 38c-.552 0-1 .448-1 1s.448 1 1 1 1-.448 1-1-.448-1-1-1zM27 38c-.552 0-1 .448-1 1s.448 1 1 1 1-.448 1-1-.448-1-1-1zM31 38c-.552 0-1 .448-1 1s.448 1 1 1 1-.448 1-1-.448-1-1-1zM35 38c-.552 0-1 .448-1 1s.448 1 1 1 1-.448 1-1-.448-1-1-1zM39 38c-.552 0-1 .448-1 1s.448 1 1 1 1-.448 1-1-.448-1-1-1z" style="isolation:auto;mix-blend-mode:normal" overflow="visible" solid-color="#000000" fill="#c1c1c1"/><path d="M43 38c-.552 0-1 .448-1 1s.448 1 1 1 1-.448 1-1-.448-1-1-1z" style="isolation:auto;mix-blend-mode:normal" overflow="visible" solid-color="#000000" fill="#acacac"/><path d="M47 38c-.552 0-1 .448-1 1s.448 1 1 1 1-.448 1-1-.448-1-1-1zM51 38c-.552 0-1 .448-1 1s.448 1 1 1 1-.448 1-1-.448-1-1-1zM55 38c-.552 0-1 .448-1 1s.448 1 1 1 1-.448 1-1-.448-1-1-1zM59 38c-.552 0-1 .448-1 1s.448 1 1 1 1-.448 1-1-.448-1-1-1zM63 38c-.552 0-1 .448-1 1s.448 1 1 1 1-.448 1-1-.448-1-1-1zM1 40c-.552 0-1 .448-1 1s.448 1 1 1 1-.448 1-1-.448-1-1-1zM5.5 40c-.552 0-1 .448-1 1s.448 1 1 1 1-.448 1-1-.448-1-1-1zM9 40c-.552 0-1 .448-1 1s.448 1 1 1 1-.448 1-1-.448-1-1-1zM13 40c-.552 0-1 .448-1 1s.448 1 1 1 1-.448 1-1-.448-1-1-1zM17 40c-.552 0-1 .448-1 1s.448 1 1 1 1-.448 1-1-.448-1-1-1zM21 40c-.552 0-1 .448-1 1s.448 1 1 1 1-.448 1-1-.448-1-1-1z" style="isolation:auto;mix-blend-mode:normal" overflow="visible" solid-color="#000000" fill="#c1c1c1"/><path d="M25 40c-.552 0-1 .448-1 1s.448 1 1 1 1-.448 1-1-.448-1-1-1zM29 40c-.552 0-1 .448-1 1s.448 1 1 1 1-.448 1-1-.448-1-1-1z" style="isolation:auto;mix-blend-mode:normal" overflow="visible" opacity=".5" solid-color="#000000" fill="#c1c1c1"/><path d="M33 40c-.552 0-1 .448-1 1s.448 1 1 1 1-.448 1-1-.448-1-1-1zM37.5 40c-.552 0-1 .448-1 1s.448 1 1 1 1-.448 1-1-.448-1-1-1zM41 40c-.552 0-1 .448-1 1s.448 1 1 1 1-.448 1-1-.448-1-1-1zM45 40c-.552 0-1 .448-1 1s.448 1 1 1 1-.448 1-1-.448-1-1-1zM49 40c-.552 0-1 .448-1 1s.448 1 1 1 1-.448 1-1-.448-1-1-1zM53 40c-.552 0-1 .448-1 1s.448 1 1 1 1-.448 1-1-.448-1-1-1z" style="isolation:auto;mix-blend-mode:normal" overflow="visible" solid-color="#000000" fill="#c1c1c1"/><path d="M57 40c-.552 0-1 .448-1 1s.448 1 1 1 1-.448 1-1-.448-1-1-1z" style="isolation:auto;mix-blend-mode:normal" overflow="visible" solid-color="#000000" fill="#c3c3c3"/><path d="M61 40c-.552 0-1 .448-1 1s.448 1 1 1 1-.448 1-1-.448-1-1-1zM3 42c-.552 0-1 .448-1 1s.448 1 1 1 1-.448 1-1-.448-1-1-1zM7 42c-.552 0-1 .448-1 1s.448 1 1 1 1-.448 1-1-.448-1-1-1zM11 42c-.552 0-1 .448-1 1s.448 1 1 1 1-.448 1-1-.448-1-1-1z" style="isolation:auto;mix-blend-mode:normal" overflow="visible" solid-color="#000000" fill="#c1c1c1"/><path d="M15 42c-.552 0-1 .448-1 1s.448 1 1 1 1-.448 1-1-.448-1-1-1z" style="isolation:auto;mix-blend-mode:normal" overflow="visible" opacity=".5" solid-color="#000000" fill="#c1c1c1"/><path d="M19 42c-.552 0-1 .448-1 1s.448 1 1 1 1-.448 1-1-.448-1-1-1zM23 42c-.552 0-1 .448-1 1s.448 1 1 1 1-.448 1-1-.448-1-1-1zM27 42c-.552 0-1 .448-1 1s.448 1 1 1 1-.448 1-1-.448-1-1-1zM31 42c-.552 0-1 .448-1 1s.448 1 1 1 1-.448 1-1-.448-1-1-1zM35 42c-.552 0-1 .448-1 1s.448 1 1 1 1-.448 1-1-.448-1-1-1zM39 42c-.552 0-1 .448-1 1s.448 1 1 1 1-.448 1-1-.448-1-1-1zM43 42c-.552 0-1 .448-1 1s.448 1 1 1 1-.448 1-1-.448-1-1-1zM47 42c-.552 0-1 .448-1 1s.448 1 1 1 1-.448 1-1-.448-1-1-1zM51 42c-.552 0-1 .448-1 1s.448 1 1 1 1-.448 1-1-.448-1-1-1zM55 42c-.552 0-1 .448-1 1s.448 1 1 1 1-.448 1-1-.448-1-1-1zM59 42c-.552 0-1 .448-1 1s.448 1 1 1 1-.448 1-1-.448-1-1-1zM63 42c-.552 0-1 .448-1 1s.448 1 1 1 1-.448 1-1-.448-1-1-1zM1 44c-.552 0-1 .448-1 1s.448 1 1 1 1-.448 1-1-.448-1-1-1zM5 44c-.552 0-1 .448-1 1s.448 1 1 1 1-.448 1-1-.448-1-1-1zM9 44c-.552 0-1 .448-1 1s.448 1 1 1 1-.448 1-1-.448-1-1-1zM13 44c-.552 0-1 .448-1 1s.448 1 1 1 1-.448 1-1-.448-1-1-1zM17 44c-.552 0-1 .448-1 1s.448 1 1 1 1-.448 1-1-.448-1-1-1zM21 44c-.552 0-1 .448-1 1s.448 1 1 1 1-.448 1-1-.448-1-1-1zM25 44c-.552 0-1 .448-1 1s.448 1 1 1 1-.448 1-1-.448-1-1-1zM29 44c-.552 0-1 .448-1 1s.448 1 1 1 1-.448 1-1-.448-1-1-1zM33 44c-.552 0-1 .448-1 1s.448 1 1 1 1-.448 1-1-.448-1-1-1zM37 44c-.552 0-1 .448-1 1s.448 1 1 1 1-.448 1-1-.448-1-1-1zM41 44c-.552 0-1 .448-1 1s.448 1 1 1 1-.448 1-1-.448-1-1-1zM45 44c-.552 0-1 .448-1 1s.448 1 1 1 1-.448 1-1-.448-1-1-1zM49 44c-.552 0-1 .448-1 1s.448 1 1 1 1-.448 1-1-.448-1-1-1zM53 44c-.552 0-1 .448-1 1s.448 1 1 1 1-.448 1-1-.448-1-1-1zM57 44c-.552 0-1 .448-1 1s.448 1 1 1 1-.448 1-1-.448-1-1-1zM61 44c-.552 0-1 .448-1 1s.448 1 1 1 1-.448 1-1-.448-1-1-1zM3 46c-.552 0-1 .448-1 1s.448 1 1 1 1-.448 1-1-.448-1-1-1zM7 46c-.552 0-1 .448-1 1s.448 1 1 1 1-.448 1-1-.448-1-1-1zM11 46c-.552 0-1 .448-1 1s.448 1 1 1 1-.448 1-1-.448-1-1-1zM15 46c-.552 0-1 .448-1 1s.448 1 1 1 1-.448 1-1-.448-1-1-1zM19 46c-.552 0-1 .448-1 1s.448 1 1 1 1-.448 1-1-.448-1-1-1z" style="isolation:auto;mix-blend-mode:normal" overflow="visible" solid-color="#000000" fill="#c1c1c1"/><path d="M23 46c-.552 0-1 .448-1 1s.448 1 1 1 1-.448 1-1-.448-1-1-1z" style="isolation:auto;mix-blend-mode:normal" overflow="visible" opacity=".5" solid-color="#000000" fill="#c1c1c1"/><path d="M27 46c-.552 0-1 .448-1 1s.448 1 1 1 1-.448 1-1-.448-1-1-1zM31 46c-.552 0-1 .448-1 1s.448 1 1 1 1-.448 1-1-.448-1-1-1zM35 46c-.552 0-1 .448-1 1s.448 1 1 1 1-.448 1-1-.448-1-1-1z" style="isolation:auto;mix-blend-mode:normal" overflow="visible" solid-color="#000000" fill="#c1c1c1"/><path d="M39 46c-.552 0-1 .448-1 1s.448 1 1 1 1-.448 1-1-.448-1-1-1z" style="isolation:auto;mix-blend-mode:normal" overflow="visible" opacity=".5" solid-color="#000000" fill="#b4b4b4"/><path d="M43 46c-.552 0-1 .448-1 1s.448 1 1 1 1-.448 1-1-.448-1-1-1zM47 46c-.552 0-1 .448-1 1s.448 1 1 1 1-.448 1-1-.448-1-1-1zM51 46c-.552 0-1 .448-1 1s.448 1 1 1 1-.448 1-1-.448-1-1-1z" style="isolation:auto;mix-blend-mode:normal" overflow="visible" solid-color="#000000" fill="#c1c1c1"/><path d="M55 46c-.552 0-1 .448-1 1s.448 1 1 1 1-.448 1-1-.448-1-1-1z" style="isolation:auto;mix-blend-mode:normal" overflow="visible" opacity=".5" solid-color="#000000" fill="#c1c1c1"/><path d="M59 46c-.552 0-1 .448-1 1s.448 1 1 1 1-.448 1-1-.448-1-1-1zM63 46c-.552 0-1 .448-1 1s.448 1 1 1 1-.448 1-1-.448-1-1-1zM17 47.492c-.552 0-1 .448-1 1s.448 1 1 1 1-.448 1-1-.448-1-1-1zM49 47.492c-.552 0-1 .448-1 1s.448 1 1 1 1-.448 1-1-.448-1-1-1zM1 48c-.552 0-1 .448-1 1s.448 1 1 1 1-.448 1-1-.448-1-1-1zM5 48c-.552 0-1 .448-1 1s.448 1 1 1 1-.448 1-1-.448-1-1-1zM9 48c-.552 0-1 .448-1 1s.448 1 1 1 1-.448 1-1-.448-1-1-1zM13 48c-.552 0-1 .448-1 1s.448 1 1 1 1-.448 1-1-.448-1-1-1zM21 48c-.552 0-1 .448-1 1s.448 1 1 1 1-.448 1-1-.448-1-1-1zM25 48c-.552 0-1 .448-1 1s.448 1 1 1 1-.448 1-1-.448-1-1-1zM29 48c-.552 0-1 .448-1 1s.448 1 1 1 1-.448 1-1-.448-1-1-1zM33 48c-.552 0-1 .448-1 1s.448 1 1 1 1-.448 1-1-.448-1-1-1zM37 48c-.552 0-1 .448-1 1s.448 1 1 1 1-.448 1-1-.448-1-1-1zM41 48c-.552 0-1 .448-1 1s.448 1 1 1 1-.448 1-1-.448-1-1-1zM45 48c-.552 0-1 .448-1 1s.448 1 1 1 1-.448 1-1-.448-1-1-1zM53 48c-.552 0-1 .448-1 1s.448 1 1 1 1-.448 1-1-.448-1-1-1zM57 48c-.552 0-1 .448-1 1s.448 1 1 1 1-.448 1-1-.448-1-1-1zM61 48c-.552 0-1 .448-1 1s.448 1 1 1 1-.448 1-1-.448-1-1-1zM3 50c-.552 0-1 .448-1 1s.448 1 1 1 1-.448 1-1-.448-1-1-1zM7 50c-.552 0-1 .448-1 1s.448 1 1 1 1-.448 1-1-.448-1-1-1zM11 50c-.552 0-1 .448-1 1s.448 1 1 1 1-.448 1-1-.448-1-1-1zM15 50c-.552 0-1 .448-1 1s.448 1 1 1 1-.448 1-1-.448-1-1-1zM19 50c-.552 0-1 .448-1 1s.448 1 1 1 1-.448 1-1-.448-1-1-1zM23 50c-.552 0-1 .448-1 1s.448 1 1 1 1-.448 1-1-.448-1-1-1zM27 50c-.552 0-1 .448-1 1s.448 1 1 1 1-.448 1-1-.448-1-1-1zM31 50c-.552 0-1 .448-1 1s.448 1 1 1 1-.448 1-1-.448-1-1-1zM35 50c-.552 0-1 .448-1 1s.448 1 1 1 1-.448 1-1-.448-1-1-1z" style="isolation:auto;mix-blend-mode:normal" overflow="visible" solid-color="#000000" fill="#c1c1c1"/><path d="M39 50c-.552 0-1 .448-1 1s.448 1 1 1 1-.448 1-1-.448-1-1-1z" style="isolation:auto;mix-blend-mode:normal" overflow="visible" opacity=".75" solid-color="#000000" fill="#c1c1c1"/><path d="M43 50c-.552 0-1 .448-1 1s.448 1 1 1 1-.448 1-1-.448-1-1-1z" style="isolation:auto;mix-blend-mode:normal" overflow="visible" solid-color="#000000" fill="#c1c1c1"/><path d="M47 50c-.552 0-1 .448-1 1s.448 1 1 1 1-.448 1-1-.448-1-1-1z" style="isolation:auto;mix-blend-mode:normal" overflow="visible" solid-color="#000000" fill="#b4b4b4"/><path d="M51 50c-.552 0-1 .448-1 1s.448 1 1 1 1-.448 1-1-.448-1-1-1zM55 50c-.552 0-1 .448-1 1s.448 1 1 1 1-.448 1-1-.448-1-1-1zM59 50c-.552 0-1 .448-1 1s.448 1 1 1 1-.448 1-1-.448-1-1-1zM63 50c-.552 0-1 .448-1 1s.448 1 1 1 1-.448 1-1-.448-1-1-1zM1 52c-.552 0-1 .448-1 1s.448 1 1 1 1-.448 1-1-.448-1-1-1zM5 52c-.552 0-1 .448-1 1s.448 1 1 1 1-.448 1-1-.448-1-1-1zM9 52c-.552 0-1 .448-1 1s.448 1 1 1 1-.448 1-1-.448-1-1-1zM13 52c-.552 0-1 .448-1 1s.448 1 1 1 1-.448 1-1-.448-1-1-1zM17 52c-.552 0-1 .448-1 1s.448 1 1 1 1-.448 1-1-.448-1-1-1zM21 52c-.552 0-1 .448-1 1s.448 1 1 1 1-.448 1-1-.448-1-1-1zM25 52c-.552 0-1 .448-1 1s.448 1 1 1 1-.448 1-1-.448-1-1-1z" style="isolation:auto;mix-blend-mode:normal" overflow="visible" solid-color="#000000" fill="#c1c1c1"/><path d="M29 52c-.552 0-1 .448-1 1s.448 1 1 1 1-.448 1-1-.448-1-1-1z" style="isolation:auto;mix-blend-mode:normal" overflow="visible" opacity=".5" solid-color="#000000" fill="#c1c1c1"/><path d="M33 52c-.552 0-1 .448-1 1s.448 1 1 1 1-.448 1-1-.448-1-1-1zM37 52c-.552 0-1 .448-1 1s.448 1 1 1 1-.448 1-1-.448-1-1-1zM41 52c-.552 0-1 .448-1 1s.448 1 1 1 1-.448 1-1-.448-1-1-1zM45 52c-.552 0-1 .448-1 1s.448 1 1 1 1-.448 1-1-.448-1-1-1z" style="isolation:auto;mix-blend-mode:normal" overflow="visible" solid-color="#000000" fill="#c1c1c1"/><path d="M49 52c-.552 0-1 .448-1 1s.448 1 1 1 1-.448 1-1-.448-1-1-1z" style="isolation:auto;mix-blend-mode:normal" overflow="visible" solid-color="#000000" fill="#b4b4b4"/><path d="M53 52c-.552 0-1 .448-1 1s.448 1 1 1 1-.448 1-1-.448-1-1-1zM57 52c-.552 0-1 .448-1 1s.448 1 1 1 1-.448 1-1-.448-1-1-1zM61 52c-.552 0-1 .448-1 1s.448 1 1 1 1-.448 1-1-.448-1-1-1zM3 54c-.552 0-1 .448-1 1s.448 1 1 1 1-.448 1-1-.448-1-1-1zM7 54c-.552 0-1 .448-1 1s.448 1 1 1 1-.448 1-1-.448-1-1-1zM11 54c-.552 0-1 .448-1 1s.448 1 1 1 1-.448 1-1-.448-1-1-1zM15 54c-.552 0-1 .448-1 1s.448 1 1 1 1-.448 1-1-.448-1-1-1zM19 54c-.552 0-1 .448-1 1s.448 1 1 1 1-.448 1-1-.448-1-1-1zM23 54c-.552 0-1 .448-1 1s.448 1 1 1 1-.448 1-1-.448-1-1-1zM27 54c-.552 0-1 .448-1 1s.448 1 1 1 1-.448 1-1-.448-1-1-1zM31 54c-.552 0-1 .448-1 1s.448 1 1 1 1-.448 1-1-.448-1-1-1zM35 54c-.552 0-1 .448-1 1s.448 1 1 1 1-.448 1-1-.448-1-1-1zM39 54c-.552 0-1 .448-1 1s.448 1 1 1 1-.448 1-1-.448-1-1-1zM43 54c-.552 0-1 .448-1 1s.448 1 1 1 1-.448 1-1-.448-1-1-1zM47 54c-.552 0-1 .448-1 1s.448 1 1 1 1-.448 1-1-.448-1-1-1zM51 54c-.552 0-1 .448-1 1s.448 1 1 1 1-.448 1-1-.448-1-1-1z" style="isolation:auto;mix-blend-mode:normal" overflow="visible" solid-color="#000000" fill="#c1c1c1"/><path d="M55 54c-.552 0-1 .448-1 1s.448 1 1 1 1-.448 1-1-.448-1-1-1z" style="isolation:auto;mix-blend-mode:normal" overflow="visible" opacity=".75" solid-color="#000000" fill="#c1c1c1"/><path d="M59 54c-.552 0-1 .448-1 1s.448 1 1 1 1-.448 1-1-.448-1-1-1zM63 54c-.552 0-1 .448-1 1s.448 1 1 1 1-.448 1-1-.448-1-1-1zM13 55.5c-.552 0-1 .448-1 1s.448 1 1 1 1-.448 1-1-.448-1-1-1zM45 55.5c-.552 0-1 .448-1 1s.448 1 1 1 1-.448 1-1-.448-1-1-1zM1 56c-.552 0-1 .448-1 1s.448 1 1 1 1-.448 1-1-.448-1-1-1zM5 56c-.552 0-1 .448-1 1s.448 1 1 1 1-.448 1-1-.448-1-1-1zM9 56c-.552 0-1 .448-1 1s.448 1 1 1 1-.448 1-1-.448-1-1-1zM17 56c-.552 0-1 .448-1 1s.448 1 1 1 1-.448 1-1-.448-1-1-1zM21 56c-.552 0-1 .448-1 1s.448 1 1 1 1-.448 1-1-.448-1-1-1zM25 56c-.552 0-1 .448-1 1s.448 1 1 1 1-.448 1-1-.448-1-1-1zM29 56c-.552 0-1 .448-1 1s.448 1 1 1 1-.448 1-1-.448-1-1-1zM33 56c-.552 0-1 .448-1 1s.448 1 1 1 1-.448 1-1-.448-1-1-1zM37 56c-.552 0-1 .448-1 1s.448 1 1 1 1-.448 1-1-.448-1-1-1zM41 56c-.552 0-1 .448-1 1s.448 1 1 1 1-.448 1-1-.448-1-1-1zM49 56c-.552 0-1 .448-1 1s.448 1 1 1 1-.448 1-1-.448-1-1-1zM53 56c-.552 0-1 .448-1 1s.448 1 1 1 1-.448 1-1-.448-1-1-1zM57 56c-.552 0-1 .448-1 1s.448 1 1 1 1-.448 1-1-.448-1-1-1zM61 56c-.552 0-1 .448-1 1s.448 1 1 1 1-.448 1-1-.448-1-1-1zM3 58c-.552 0-1 .448-1 1s.448 1 1 1 1-.448 1-1-.448-1-1-1zM7 58c-.552 0-1 .448-1 1s.448 1 1 1 1-.448 1-1-.448-1-1-1zM11 58c-.552 0-1 .448-1 1s.448 1 1 1 1-.448 1-1-.448-1-1-1zM15 58c-.552 0-1 .448-1 1s.448 1 1 1 1-.448 1-1-.448-1-1-1zM19 58c-.552 0-1 .448-1 1s.448 1 1 1 1-.448 1-1-.448-1-1-1z" style="isolation:auto;mix-blend-mode:normal" overflow="visible" solid-color="#000000" fill="#c1c1c1"/><path d="M23 58c-.552 0-1 .448-1 1s.448 1 1 1 1-.448 1-1-.448-1-1-1z" style="isolation:auto;mix-blend-mode:normal" overflow="visible" opacity=".5" solid-color="#000000" fill="#c1c1c1"/><path d="M27 58c-.552 0-1 .448-1 1s.448 1 1 1 1-.448 1-1-.448-1-1-1zM31 58c-.552 0-1 .448-1 1s.448 1 1 1 1-.448 1-1-.448-1-1-1zM35 58c-.552 0-1 .448-1 1s.448 1 1 1 1-.448 1-1-.448-1-1-1zM39 58c-.552 0-1 .448-1 1s.448 1 1 1 1-.448 1-1-.448-1-1-1zM43 58c-.552 0-1 .448-1 1s.448 1 1 1 1-.448 1-1-.448-1-1-1zM47 58c-.552 0-1 .448-1 1s.448 1 1 1 1-.448 1-1-.448-1-1-1zM51 58c-.552 0-1 .448-1 1s.448 1 1 1 1-.448 1-1-.448-1-1-1zM55 58c-.552 0-1 .448-1 1s.448 1 1 1 1-.448 1-1-.448-1-1-1z" style="isolation:auto;mix-blend-mode:normal" overflow="visible" solid-color="#000000" fill="#c1c1c1"/><path d="M59 58c-.552 0-1 .448-1 1s.448 1 1 1 1-.448 1-1-.448-1-1-1z" style="isolation:auto;mix-blend-mode:normal" overflow="visible" opacity=".5" solid-color="#000000" fill="#c1c1c1"/><path d="M63 58c-.552 0-1 .448-1 1s.448 1 1 1 1-.448 1-1-.448-1-1-1zM1 60c-.552 0-1 .448-1 1s.448 1 1 1 1-.448 1-1-.448-1-1-1zM5 60c-.552 0-1 .448-1 1s.448 1 1 1 1-.448 1-1-.448-1-1-1zM9 60c-.552 0-1 .448-1 1s.448 1 1 1 1-.448 1-1-.448-1-1-1zM13 60c-.552 0-1 .448-1 1s.448 1 1 1 1-.448 1-1-.448-1-1-1zM17 60c-.552 0-1 .448-1 1s.448 1 1 1 1-.448 1-1-.448-1-1-1zM21 60c-.552 0-1 .448-1 1s.448 1 1 1 1-.448 1-1-.448-1-1-1zM25 60c-.552 0-1 .448-1 1s.448 1 1 1 1-.448 1-1-.448-1-1-1zM29 60c-.552 0-1 .448-1 1s.448 1 1 1 1-.448 1-1-.448-1-1-1zM33 60c-.552 0-1 .448-1 1s.448 1 1 1 1-.448 1-1-.448-1-1-1zM37 60c-.552 0-1 .448-1 1s.448 1 1 1 1-.448 1-1-.448-1-1-1zM41 60c-.552 0-1 .448-1 1s.448 1 1 1 1-.448 1-1-.448-1-1-1zM45 60c-.552 0-1 .448-1 1s.448 1 1 1 1-.448 1-1-.448-1-1-1zM49 60c-.552 0-1 .448-1 1s.448 1 1 1 1-.448 1-1-.448-1-1-1zM53 60c-.552 0-1 .448-1 1s.448 1 1 1 1-.448 1-1-.448-1-1-1zM57 60c-.552 0-1 .448-1 1s.448 1 1 1 1-.448 1-1-.448-1-1-1z" style="isolation:auto;mix-blend-mode:normal" overflow="visible" solid-color="#000000" fill="#c1c1c1"/><path d="M61 60c-.552 0-1 .448-1 1s.448 1 1 1 1-.448 1-1-.448-1-1-1z" style="isolation:auto;mix-blend-mode:normal" overflow="visible" solid-color="#000000" fill="#b4b4b4"/><path d="M3 62c-.552 0-1 .448-1 1s.448 1 1 1 1-.448 1-1-.448-1-1-1zM7 62c-.552 0-1 .448-1 1s.448 1 1 1 1-.448 1-1-.448-1-1-1zM11 62c-.552 0-1 .448-1 1s.448 1 1 1 1-.448 1-1-.448-1-1-1zM15 62c-.552 0-1 .448-1 1s.448 1 1 1 1-.448 1-1-.448-1-1-1zM19 62c-.552 0-1 .448-1 1s.448 1 1 1 1-.448 1-1-.448-1-1-1zM23 62c-.552 0-1 .448-1 1s.448 1 1 1 1-.448 1-1-.448-1-1-1zM27 62c-.552 0-1 .448-1 1s.448 1 1 1 1-.448 1-1-.448-1-1-1zM31 62c-.552 0-1 .448-1 1s.448 1 1 1 1-.448 1-1-.448-1-1-1zM35 62c-.552 0-1 .448-1 1s.448 1 1 1 1-.448 1-1-.448-1-1-1zM39 62c-.552 0-1 .448-1 1s.448 1 1 1 1-.448 1-1-.448-1-1-1zM43 62c-.552 0-1 .448-1 1s.448 1 1 1 1-.448 1-1-.448-1-1-1z" style="isolation:auto;mix-blend-mode:normal" overflow="visible" solid-color="#000000" fill="#c1c1c1"/><path d="M47 62c-.552 0-1 .448-1 1s.448 1 1 1 1-.448 1-1-.448-1-1-1z" style="isolation:auto;mix-blend-mode:normal" overflow="visible" solid-color="#000000" fill="#b4b4b4"/><path d="M51 62c-.552 0-1 .448-1 1s.448 1 1 1 1-.448 1-1-.448-1-1-1zM55 62c-.552 0-1 .448-1 1s.448 1 1 1 1-.448 1-1-.448-1-1-1z" style="isolation:auto;mix-blend-mode:normal" overflow="visible" solid-color="#000000" fill="#c1c1c1"/><path d="M59 62c-.552 0-1 .448-1 1s.448 1 1 1 1-.448 1-1-.448-1-1-1z" style="isolation:auto;mix-blend-mode:normal" overflow="visible" solid-color="#000000" fill="#b4b4b4"/><path d="M63 62c-.552 0-1 .448-1 1s.448 1 1 1 1-.448 1-1-.448-1-1-1z" style="isolation:auto;mix-blend-mode:normal" overflow="visible" solid-color="#000000" fill="#c1c1c1"/></g></svg>